<svg xmlns="http://www.w3.org/2000/svg" viewBox="0 0 591.52 105.43"><defs><style>.cls-1{fill:none;stroke:#fff;stroke-miterlimit:10;stroke-width:8px;}.cls-2{fill:#fff;}.cls-3{fill:#ed1c24;}</style></defs><g id="Layer_2" data-name="Layer 2"><g id="Layer_1-2" data-name="Layer 1"><rect class="cls-1" x="4" y="4" width="322.83" height="97.43"/><path class="cls-2" d="M384.76,82.13h-7.69v-7.5h-.19a17.4,17.4,0,0,1-6.12,6.47,16.23,16.23,0,0,1-8.46,2.15q-6.75,0-10.92-3.93a13.72,13.72,0,0,1-4.17-10.46,13.49,13.49,0,0,1,4.22-10.17q4.21-4,11.95-5.15l13.69-1.83V50.63q0-6-2.81-8.6a10.71,10.71,0,0,0-7.5-2.56,19,19,0,0,0-7.22,1.41A20.65,20.65,0,0,0,353,45.19l-4.5-4.64A25.35,25.35,0,0,1,367.23,33q8.72,0,13.12,4.48t4.41,13.43Zm-7.69-19.5V57.85l-11.58,1.59q-5.3.75-8,2.67t-2.67,6a8.45,8.45,0,0,0,2.51,6.59A8.8,8.8,0,0,0,363.48,77a12.68,12.68,0,0,0,9.91-4.08A14.82,14.82,0,0,0,377.07,62.63Z"/><path class="cls-2" d="M438.43,82.13h-7.69V74.54h-.19a16.56,16.56,0,0,1-6.09,6.53,16.83,16.83,0,0,1-8.72,2.18q-8.58,0-12.87-5.11t-4.29-15.32V34.13h7.65V61.6q0,7.59,2.9,11.39t8.72,3.8a11.78,11.78,0,0,0,9.26-4.15q3.63-4.15,3.63-10.85V34.13h7.69Z"/><path class="cls-2" d="M476.82,81.57A22.22,22.22,0,0,1,473,82.76a20.59,20.59,0,0,1-4.29.4q-5.71,0-9-3.35t-3.26-9.92V40.69h-8.25V34.13h8.25V22.41l7.69-2.48v14.2h12.09v6.56H464.12V69q0,4.13,1.47,6A5.36,5.36,0,0,0,470,76.79a11.07,11.07,0,0,0,2.72-.33,11.92,11.92,0,0,0,2.2-.75Z"/><path class="cls-2" d="M506.54,83.25q-10.65,0-17-6.72t-6.36-17.84q0-12,6.57-18.84T507.66,33q10.74,0,16.76,6.61t6,18.33q0,11.53-6.49,18.42T506.54,83.25Zm.56-6.46q7.46,0,11.46-4.86t4-13.71q0-9-4-13.9T507.1,39.47q-7.41,0-11.72,5.07t-4.31,13.87q0,8.53,4.36,13.45A14.82,14.82,0,0,0,507.1,76.79Z"/><path class="cls-2" d="M538.23,78.52l3.65-5.91A28,28,0,0,0,548,75.73a19.47,19.47,0,0,0,6.47,1.06q4.92,0,7.48-1.83a6.31,6.31,0,0,0,2.55-5.49,6.46,6.46,0,0,0-2.27-5,16.91,16.91,0,0,0-7.1-3.26q-9-2.3-12.33-5.79a12,12,0,0,1-3.33-8.6A12.67,12.67,0,0,1,543.94,37q4.45-4,12.43-4a26.5,26.5,0,0,1,7.31,1,25.53,25.53,0,0,1,7.08,3.37l-3.43,5.82a25.89,25.89,0,0,0-5.88-2.89,17.62,17.62,0,0,0-5.27-.82q-4.65,0-7.08,1.71a5.69,5.69,0,0,0-2.44,5A5.43,5.43,0,0,0,549.17,51a28.67,28.67,0,0,0,8.09,3.1q7.31,2,10.94,5.51a12.32,12.32,0,0,1,3.63,9.25,12.91,12.91,0,0,1-4.71,10.53q-4.71,3.85-12.91,3.86A29.28,29.28,0,0,1,545.75,82,28.58,28.58,0,0,1,538.23,78.52Z"/><path class="cls-2" d="M586.08,83.16a5.25,5.25,0,0,1-3.84-1.57,5.24,5.24,0,0,1,0-7.52,5.42,5.42,0,0,1,7.69,0,5.24,5.24,0,0,1,0,7.52A5.28,5.28,0,0,1,586.08,83.16Z"/><polygon class="cls-3" points="79.66 44.1 79.66 82.13 72.29 82.13 72.29 36.73 79.66 44.1"/><path class="cls-2" d="M33.1,43.5v8.75H56.38v7.37H33.1V74.76H64.53v7.37H25.73V43.55a10.46,10.46,0,0,1,3.06-7.4h0a10.5,10.5,0,0,1,7.4-3.07H64.53v7.38H36.15a3.08,3.08,0,0,0-2.16.89h0A3,3,0,0,0,33.1,43.5Z"/><polygon class="cls-2" points="118.85 23.3 118.85 82.13 111.48 82.13 111.48 33.7 95.57 49.61 72.29 26.33 72.29 23.3 79.66 23.3 95.57 39.21 111.48 23.3 118.85 23.3"/><path class="cls-2" d="M165.41,40.46H149.74V82.13h-7.37V40.46H126.61V33.08h38.8Z"/><path class="cls-2" d="M180.55,43.5v8.75h23.28v7.37H180.55V74.76H212v7.37H173.17V43.55a10.47,10.47,0,0,1,3.07-7.4h0a10.47,10.47,0,0,1,7.4-3.07H212v7.38H183.59a3,3,0,0,0-2.15.89h0A3,3,0,0,0,180.55,43.5Z"/><path class="cls-2" d="M258.54,43.55v5.91h-7.38v-6a3,3,0,0,0-.89-2.15h0a3,3,0,0,0-2.15-.89h-18a3.05,3.05,0,0,0-2.15.89h0a3,3,0,0,0-.89,2.15V71.71a3,3,0,0,0,.89,2.15h0a3,3,0,0,0,2.15.9h18a3,3,0,0,0,2.15-.9h0a3,3,0,0,0,.89-2.15V65.76h7.38v5.9a10.47,10.47,0,0,1-3.07,7.4h0a10.43,10.43,0,0,1-7.4,3.07H230.2a10.43,10.43,0,0,1-7.4-3.07h0a10.47,10.47,0,0,1-3.07-7.4V43.55a10.47,10.47,0,0,1,3.07-7.4h0a10.47,10.47,0,0,1,7.4-3.07h17.87a10.47,10.47,0,0,1,7.4,3.07h0A10.47,10.47,0,0,1,258.54,43.55Z"/><path class="cls-2" d="M305.1,33.08V82.13h-7.37V62.34H273.51V82.13H266.3v-49h7.21V55h24.22V33.08Z"/></g></g></svg>